<mxfile host="app.diagrams.net" modified="2021-06-30T19:29:20.275Z" agent="5.0 (Windows NT 10.0; Win64; x64) AppleWebKit/537.36 (KHTML, like Gecko) Chrome/90.0.4430.216 YaBrowser/21.5.4.607 Yowser/2.5 Safari/537.36" etag="RuCAeX806u5A7EVUmU4A" version="14.8.2" type="github">
  <diagram id="QwRGjJdV-PLS9jToXUnF" name="Page-1">
    <mxGraphModel dx="1038" dy="575" grid="1" gridSize="10" guides="1" tooltips="1" connect="1" arrows="1" fold="1" page="1" pageScale="1" pageWidth="827" pageHeight="1169" math="0" shadow="0">
      <root>
        <mxCell id="0" />
        <mxCell id="1" parent="0" />
        <mxCell id="c2sXDAtgwe_dRYKI0X34-85" style="edgeStyle=orthogonalEdgeStyle;rounded=0;orthogonalLoop=1;jettySize=auto;html=1;exitX=0.5;exitY=1;exitDx=0;exitDy=0;fontSize=13;fontColor=#000000;startArrow=ERmandOne;startFill=0;endArrow=ERzeroToMany;endFill=1;" edge="1" parent="1" source="c2sXDAtgwe_dRYKI0X34-1" target="c2sXDAtgwe_dRYKI0X34-36">
          <mxGeometry relative="1" as="geometry" />
        </mxCell>
        <mxCell id="c2sXDAtgwe_dRYKI0X34-1" value="&lt;font style=&quot;font-size: 13px&quot;&gt;Test&lt;/font&gt;" style="shape=table;startSize=30;container=1;collapsible=0;childLayout=tableLayout;fixedRows=1;rowLines=0;fontStyle=1;align=center;pointerEvents=1;fontSize=10;html=1;fillColor=none;strokeWidth=1;" vertex="1" parent="1">
          <mxGeometry x="330" y="60" width="180" height="190" as="geometry" />
        </mxCell>
        <mxCell id="c2sXDAtgwe_dRYKI0X34-2" value="" style="shape=partialRectangle;html=1;whiteSpace=wrap;collapsible=0;dropTarget=0;pointerEvents=0;fillColor=none;top=0;left=0;bottom=1;right=0;points=[[0,0.5],[1,0.5]];portConstraint=eastwest;" vertex="1" parent="c2sXDAtgwe_dRYKI0X34-1">
          <mxGeometry y="30" width="180" height="30" as="geometry" />
        </mxCell>
        <mxCell id="c2sXDAtgwe_dRYKI0X34-3" value="&lt;span style=&quot;color: rgba(0 , 0 , 0 , 0) ; font-family: monospace ; font-size: 0px&quot;&gt;%3CmxGraphModel%3E%3Croot%3E%3CmxCell%20id%3D%220%22%2F%3E%3CmxCell%20id%3D%221%22%20parent%3D%220%22%2F%3E%3CmxCell%20id%3D%222%22%20value%3D%22%22%20style%3D%22points%3D%5B%5B0%2C0.5%2C0%5D%2C%5B0.24%2C0%2C0%5D%2C%5B0.5%2C0.28%2C0%5D%2C%5B0.995%2C0.475%2C0%5D%2C%5B0.5%2C0.72%2C0%5D%2C%5B0.24%2C1%2C0%5D%5D%3BverticalLabelPosition%3Dbottom%3Bhtml%3D1%3BverticalAlign%3Dtop%3Baspect%3Dfixed%3Balign%3Dcenter%3BpointerEvents%3D1%3Bshape%3Dmxgraph.cisco19.key%3BfillColor%3D%23005073%3BstrokeColor%3Dnone%3BfontSize%3D13%3BfontColor%3D%23000000%3B%22%20vertex%3D%221%22%20parent%3D%221%22%3E%3CmxGeometry%20x%3D%22330%22%20y%3D%2250%22%20width%3D%2222.22%22%20height%3D%2210%22%20as%3D%22geometry%22%2F%3E%3C%2FmxCell%3E%3C%2Froot%3E%3C%2FmxGraphModel%3E&lt;/span&gt;" style="shape=partialRectangle;html=1;whiteSpace=wrap;connectable=0;fillColor=none;top=0;left=0;bottom=0;right=0;overflow=hidden;" vertex="1" parent="c2sXDAtgwe_dRYKI0X34-2">
          <mxGeometry width="40" height="30" as="geometry" />
        </mxCell>
        <mxCell id="c2sXDAtgwe_dRYKI0X34-4" value="&lt;font style=&quot;font-size: 13px&quot;&gt;&lt;b&gt;id&lt;/b&gt;&lt;/font&gt;" style="shape=partialRectangle;html=1;whiteSpace=wrap;connectable=0;fillColor=none;top=0;left=0;bottom=0;right=0;align=left;spacingLeft=6;overflow=hidden;" vertex="1" parent="c2sXDAtgwe_dRYKI0X34-2">
          <mxGeometry x="40" width="140" height="30" as="geometry" />
        </mxCell>
        <mxCell id="c2sXDAtgwe_dRYKI0X34-5" value="" style="shape=partialRectangle;html=1;whiteSpace=wrap;collapsible=0;dropTarget=0;pointerEvents=0;fillColor=none;top=0;left=0;bottom=0;right=0;points=[[0,0.5],[1,0.5]];portConstraint=eastwest;" vertex="1" parent="c2sXDAtgwe_dRYKI0X34-1">
          <mxGeometry y="60" width="180" height="30" as="geometry" />
        </mxCell>
        <mxCell id="c2sXDAtgwe_dRYKI0X34-6" value="" style="shape=partialRectangle;html=1;whiteSpace=wrap;connectable=0;fillColor=none;top=0;left=0;bottom=0;right=0;overflow=hidden;" vertex="1" parent="c2sXDAtgwe_dRYKI0X34-5">
          <mxGeometry width="40" height="30" as="geometry" />
        </mxCell>
        <mxCell id="c2sXDAtgwe_dRYKI0X34-7" value="category_id" style="shape=partialRectangle;html=1;whiteSpace=wrap;connectable=0;fillColor=none;top=0;left=0;bottom=0;right=0;align=left;spacingLeft=6;overflow=hidden;" vertex="1" parent="c2sXDAtgwe_dRYKI0X34-5">
          <mxGeometry x="40" width="140" height="30" as="geometry" />
        </mxCell>
        <mxCell id="c2sXDAtgwe_dRYKI0X34-8" value="" style="shape=partialRectangle;html=1;whiteSpace=wrap;collapsible=0;dropTarget=0;pointerEvents=0;fillColor=none;top=0;left=0;bottom=0;right=0;points=[[0,0.5],[1,0.5]];portConstraint=eastwest;" vertex="1" parent="c2sXDAtgwe_dRYKI0X34-1">
          <mxGeometry y="90" width="180" height="30" as="geometry" />
        </mxCell>
        <mxCell id="c2sXDAtgwe_dRYKI0X34-9" value="" style="shape=partialRectangle;html=1;whiteSpace=wrap;connectable=0;fillColor=none;top=0;left=0;bottom=0;right=0;overflow=hidden;" vertex="1" parent="c2sXDAtgwe_dRYKI0X34-8">
          <mxGeometry width="40" height="30" as="geometry" />
        </mxCell>
        <mxCell id="c2sXDAtgwe_dRYKI0X34-10" value="user_id" style="shape=partialRectangle;html=1;whiteSpace=wrap;connectable=0;fillColor=none;top=0;left=0;bottom=0;right=0;align=left;spacingLeft=6;overflow=hidden;" vertex="1" parent="c2sXDAtgwe_dRYKI0X34-8">
          <mxGeometry x="40" width="140" height="30" as="geometry" />
        </mxCell>
        <mxCell id="c2sXDAtgwe_dRYKI0X34-12" value="&lt;font style=&quot;font-size: 13px&quot;&gt;Category&lt;/font&gt;" style="shape=table;startSize=30;container=1;collapsible=0;childLayout=tableLayout;fixedRows=1;rowLines=0;fontStyle=1;align=center;pointerEvents=1;fontSize=10;html=1;fillColor=none;strokeWidth=1;" vertex="1" parent="1">
          <mxGeometry x="60" y="20" width="180" height="100" as="geometry" />
        </mxCell>
        <mxCell id="c2sXDAtgwe_dRYKI0X34-13" value="" style="shape=partialRectangle;html=1;whiteSpace=wrap;collapsible=0;dropTarget=0;pointerEvents=0;fillColor=none;top=0;left=0;bottom=1;right=0;points=[[0,0.5],[1,0.5]];portConstraint=eastwest;" vertex="1" parent="c2sXDAtgwe_dRYKI0X34-12">
          <mxGeometry y="30" width="180" height="30" as="geometry" />
        </mxCell>
        <mxCell id="c2sXDAtgwe_dRYKI0X34-14" value="" style="shape=partialRectangle;html=1;whiteSpace=wrap;connectable=0;fillColor=none;top=0;left=0;bottom=0;right=0;overflow=hidden;" vertex="1" parent="c2sXDAtgwe_dRYKI0X34-13">
          <mxGeometry width="40" height="30" as="geometry" />
        </mxCell>
        <mxCell id="c2sXDAtgwe_dRYKI0X34-15" value="&lt;b&gt;&lt;font style=&quot;font-size: 13px&quot;&gt;id&lt;/font&gt;&lt;/b&gt;" style="shape=partialRectangle;html=1;whiteSpace=wrap;connectable=0;fillColor=none;top=0;left=0;bottom=0;right=0;align=left;spacingLeft=6;overflow=hidden;" vertex="1" parent="c2sXDAtgwe_dRYKI0X34-13">
          <mxGeometry x="40" width="140" height="30" as="geometry" />
        </mxCell>
        <mxCell id="c2sXDAtgwe_dRYKI0X34-16" value="" style="shape=partialRectangle;html=1;whiteSpace=wrap;collapsible=0;dropTarget=0;pointerEvents=0;fillColor=none;top=0;left=0;bottom=0;right=0;points=[[0,0.5],[1,0.5]];portConstraint=eastwest;" vertex="1" parent="c2sXDAtgwe_dRYKI0X34-12">
          <mxGeometry y="60" width="180" height="30" as="geometry" />
        </mxCell>
        <mxCell id="c2sXDAtgwe_dRYKI0X34-17" value="" style="shape=partialRectangle;html=1;whiteSpace=wrap;connectable=0;fillColor=none;top=0;left=0;bottom=0;right=0;overflow=hidden;" vertex="1" parent="c2sXDAtgwe_dRYKI0X34-16">
          <mxGeometry width="40" height="30" as="geometry" />
        </mxCell>
        <mxCell id="c2sXDAtgwe_dRYKI0X34-18" value="title NOT NULL" style="shape=partialRectangle;html=1;whiteSpace=wrap;connectable=0;fillColor=none;top=0;left=0;bottom=0;right=0;align=left;spacingLeft=6;overflow=hidden;fontSize=13;strokeWidth=1;" vertex="1" parent="c2sXDAtgwe_dRYKI0X34-16">
          <mxGeometry x="40" width="140" height="30" as="geometry" />
        </mxCell>
        <mxCell id="c2sXDAtgwe_dRYKI0X34-86" style="edgeStyle=orthogonalEdgeStyle;rounded=0;orthogonalLoop=1;jettySize=auto;html=1;exitX=0.75;exitY=1;exitDx=0;exitDy=0;fontSize=13;fontColor=#000000;startArrow=ERmandOne;startFill=0;endArrow=ERzeroToMany;endFill=1;" edge="1" parent="1" source="c2sXDAtgwe_dRYKI0X34-22" target="c2sXDAtgwe_dRYKI0X34-39">
          <mxGeometry relative="1" as="geometry" />
        </mxCell>
        <mxCell id="c2sXDAtgwe_dRYKI0X34-22" value="&lt;font style=&quot;font-size: 13px&quot;&gt;User&lt;/font&gt;&lt;span style=&quot;color: rgba(0 , 0 , 0 , 0) ; font-family: monospace ; font-size: 0px ; font-weight: 400&quot;&gt;%3CmxGraphModel%3E%3Croot%3E%3CmxCell%20id%3D%220%22%2F%3E%3CmxCell%20id%3D%221%22%20parent%3D%220%22%2F%3E%3CmxCell%20id%3D%222%22%20value%3D%22%26lt%3Bfont%20style%3D%26quot%3Bfont-size%3A%2013px%26quot%3B%26gt%3BTest%26lt%3B%2Ffont%26gt%3B%22%20style%3D%22shape%3Dtable%3BstartSize%3D30%3Bcontainer%3D1%3Bcollapsible%3D0%3BchildLayout%3DtableLayout%3BfixedRows%3D1%3BrowLines%3D0%3BfontStyle%3D1%3Balign%3Dcenter%3BpointerEvents%3D1%3BfontSize%3D10%3Bhtml%3D1%3BfillColor%3Dnone%3BstrokeWidth%3D2%3B%22%20vertex%3D%221%22%20parent%3D%221%22%3E%3CmxGeometry%20x%3D%22320%22%20y%3D%22220%22%20width%3D%22180%22%20height%3D%22150%22%20as%3D%22geometry%22%2F%3E%3C%2FmxCell%3E%3CmxCell%20id%3D%223%22%20value%3D%22%22%20style%3D%22shape%3DpartialRectangle%3Bhtml%3D1%3BwhiteSpace%3Dwrap%3Bcollapsible%3D0%3BdropTarget%3D0%3BpointerEvents%3D0%3BfillColor%3Dnone%3Btop%3D0%3Bleft%3D0%3Bbottom%3D1%3Bright%3D0%3Bpoints%3D%5B%5B0%2C0.5%5D%2C%5B1%2C0.5%5D%5D%3BportConstraint%3Deastwest%3B%22%20vertex%3D%221%22%20parent%3D%222%22%3E%3CmxGeometry%20y%3D%2230%22%20width%3D%22180%22%20height%3D%2230%22%20as%3D%22geometry%22%2F%3E%3C%2FmxCell%3E%3CmxCell%20id%3D%224%22%20value%3D%221%22%20style%3D%22shape%3DpartialRectangle%3Bhtml%3D1%3BwhiteSpace%3Dwrap%3Bconnectable%3D0%3BfillColor%3Dnone%3Btop%3D0%3Bleft%3D0%3Bbottom%3D0%3Bright%3D0%3Boverflow%3Dhidden%3B%22%20vertex%3D%221%22%20parent%3D%223%22%3E%3CmxGeometry%20width%3D%2240%22%20height%3D%2230%22%20as%3D%22geometry%22%2F%3E%3C%2FmxCell%3E%3CmxCell%20id%3D%225%22%20value%3D%22Value%201%22%20style%3D%22shape%3DpartialRectangle%3Bhtml%3D1%3BwhiteSpace%3Dwrap%3Bconnectable%3D0%3BfillColor%3Dnone%3Btop%3D0%3Bleft%3D0%3Bbottom%3D0%3Bright%3D0%3Balign%3Dleft%3BspacingLeft%3D6%3Boverflow%3Dhidden%3B%22%20vertex%3D%221%22%20parent%3D%223%22%3E%3CmxGeometry%20x%3D%2240%22%20width%3D%22140%22%20height%3D%2230%22%20as%3D%22geometry%22%2F%3E%3C%2FmxCell%3E%3CmxCell%20id%3D%226%22%20value%3D%22%22%20style%3D%22shape%3DpartialRectangle%3Bhtml%3D1%3BwhiteSpace%3Dwrap%3Bcollapsible%3D0%3BdropTarget%3D0%3BpointerEvents%3D0%3BfillColor%3Dnone%3Btop%3D0%3Bleft%3D0%3Bbottom%3D0%3Bright%3D0%3Bpoints%3D%5B%5B0%2C0.5%5D%2C%5B1%2C0.5%5D%5D%3BportConstraint%3Deastwest%3B%22%20vertex%3D%221%22%20parent%3D%222%22%3E%3CmxGeometry%20y%3D%2260%22%20width%3D%22180%22%20height%3D%2230%22%20as%3D%22geometry%22%2F%3E%3C%2FmxCell%3E%3CmxCell%20id%3D%227%22%20value%3D%222%22%20style%3D%22shape%3DpartialRectangle%3Bhtml%3D1%3BwhiteSpace%3Dwrap%3Bconnectable%3D0%3BfillColor%3Dnone%3Btop%3D0%3Bleft%3D0%3Bbottom%3D0%3Bright%3D0%3Boverflow%3Dhidden%3B%22%20vertex%3D%221%22%20parent%3D%226%22%3E%3CmxGeometry%20width%3D%2240%22%20height%3D%2230%22%20as%3D%22geometry%22%2F%3E%3C%2FmxCell%3E%3CmxCell%20id%3D%228%22%20value%3D%22Value%202%22%20style%3D%22shape%3DpartialRectangle%3Bhtml%3D1%3BwhiteSpace%3Dwrap%3Bconnectable%3D0%3BfillColor%3Dnone%3Btop%3D0%3Bleft%3D0%3Bbottom%3D0%3Bright%3D0%3Balign%3Dleft%3BspacingLeft%3D6%3Boverflow%3Dhidden%3B%22%20vertex%3D%221%22%20parent%3D%226%22%3E%3CmxGeometry%20x%3D%2240%22%20width%3D%22140%22%20height%3D%2230%22%20as%3D%22geometry%22%2F%3E%3C%2FmxCell%3E%3CmxCell%20id%3D%229%22%20value%3D%22%22%20style%3D%22shape%3DpartialRectangle%3Bhtml%3D1%3BwhiteSpace%3Dwrap%3Bcollapsible%3D0%3BdropTarget%3D0%3BpointerEvents%3D0%3BfillColor%3Dnone%3Btop%3D0%3Bleft%3D0%3Bbottom%3D0%3Bright%3D0%3Bpoints%3D%5B%5B0%2C0.5%5D%2C%5B1%2C0.5%5D%5D%3BportConstraint%3Deastwest%3B%22%20vertex%3D%221%22%20parent%3D%222%22%3E%3CmxGeometry%20y%3D%2290%22%20width%3D%22180%22%20height%3D%2230%22%20as%3D%22geometry%22%2F%3E%3C%2FmxCell%3E%3CmxCell%20id%3D%2210%22%20value%3D%223%22%20style%3D%22shape%3DpartialRectangle%3Bhtml%3D1%3BwhiteSpace%3Dwrap%3Bconnectable%3D0%3BfillColor%3Dnone%3Btop%3D0%3Bleft%3D0%3Bbottom%3D0%3Bright%3D0%3Boverflow%3Dhidden%3B%22%20vertex%3D%221%22%20parent%3D%229%22%3E%3CmxGeometry%20width%3D%2240%22%20height%3D%2230%22%20as%3D%22geometry%22%2F%3E%3C%2FmxCell%3E%3CmxCell%20id%3D%2211%22%20value%3D%22Value%203%22%20style%3D%22shape%3DpartialRectangle%3Bhtml%3D1%3BwhiteSpace%3Dwrap%3Bconnectable%3D0%3BfillColor%3Dnone%3Btop%3D0%3Bleft%3D0%3Bbottom%3D0%3Bright%3D0%3Balign%3Dleft%3BspacingLeft%3D6%3Boverflow%3Dhidden%3B%22%20vertex%3D%221%22%20parent%3D%229%22%3E%3CmxGeometry%20x%3D%2240%22%20width%3D%22140%22%20height%3D%2230%22%20as%3D%22geometry%22%2F%3E%3C%2FmxCell%3E%3C%2Froot%3E%3C%2FmxGraphModel%3E&lt;/span&gt;" style="shape=table;startSize=30;container=1;collapsible=0;childLayout=tableLayout;fixedRows=1;rowLines=0;fontStyle=1;align=center;pointerEvents=1;fontSize=10;html=1;fillColor=none;strokeWidth=1;" vertex="1" parent="1">
          <mxGeometry x="60" y="190" width="180" height="130" as="geometry" />
        </mxCell>
        <mxCell id="c2sXDAtgwe_dRYKI0X34-23" value="" style="shape=partialRectangle;html=1;whiteSpace=wrap;collapsible=0;dropTarget=0;pointerEvents=0;fillColor=none;top=0;left=0;bottom=1;right=0;points=[[0,0.5],[1,0.5]];portConstraint=eastwest;" vertex="1" parent="c2sXDAtgwe_dRYKI0X34-22">
          <mxGeometry y="30" width="180" height="30" as="geometry" />
        </mxCell>
        <mxCell id="c2sXDAtgwe_dRYKI0X34-24" value="" style="shape=partialRectangle;html=1;whiteSpace=wrap;connectable=0;fillColor=none;top=0;left=0;bottom=0;right=0;overflow=hidden;" vertex="1" parent="c2sXDAtgwe_dRYKI0X34-23">
          <mxGeometry width="40" height="30" as="geometry" />
        </mxCell>
        <mxCell id="c2sXDAtgwe_dRYKI0X34-25" value="&lt;b&gt;&lt;font style=&quot;font-size: 13px&quot;&gt;id&lt;/font&gt;&lt;/b&gt;" style="shape=partialRectangle;html=1;whiteSpace=wrap;connectable=0;fillColor=none;top=0;left=0;bottom=0;right=0;align=left;spacingLeft=6;overflow=hidden;" vertex="1" parent="c2sXDAtgwe_dRYKI0X34-23">
          <mxGeometry x="40" width="140" height="30" as="geometry" />
        </mxCell>
        <mxCell id="c2sXDAtgwe_dRYKI0X34-26" value="" style="shape=partialRectangle;html=1;whiteSpace=wrap;collapsible=0;dropTarget=0;pointerEvents=0;fillColor=none;top=0;left=0;bottom=0;right=0;points=[[0,0.5],[1,0.5]];portConstraint=eastwest;" vertex="1" parent="c2sXDAtgwe_dRYKI0X34-22">
          <mxGeometry y="60" width="180" height="30" as="geometry" />
        </mxCell>
        <mxCell id="c2sXDAtgwe_dRYKI0X34-27" value="" style="shape=partialRectangle;html=1;whiteSpace=wrap;connectable=0;fillColor=none;top=0;left=0;bottom=0;right=0;overflow=hidden;" vertex="1" parent="c2sXDAtgwe_dRYKI0X34-26">
          <mxGeometry width="40" height="30" as="geometry" />
        </mxCell>
        <mxCell id="c2sXDAtgwe_dRYKI0X34-28" value="name NOT NULL" style="shape=partialRectangle;html=1;whiteSpace=wrap;connectable=0;fillColor=none;top=0;left=0;bottom=0;right=0;align=left;spacingLeft=6;overflow=hidden;" vertex="1" parent="c2sXDAtgwe_dRYKI0X34-26">
          <mxGeometry x="40" width="140" height="30" as="geometry" />
        </mxCell>
        <mxCell id="c2sXDAtgwe_dRYKI0X34-29" value="" style="shape=partialRectangle;html=1;whiteSpace=wrap;collapsible=0;dropTarget=0;pointerEvents=0;fillColor=none;top=0;left=0;bottom=0;right=0;points=[[0,0.5],[1,0.5]];portConstraint=eastwest;" vertex="1" parent="c2sXDAtgwe_dRYKI0X34-22">
          <mxGeometry y="90" width="180" height="30" as="geometry" />
        </mxCell>
        <mxCell id="c2sXDAtgwe_dRYKI0X34-30" value="" style="shape=partialRectangle;html=1;whiteSpace=wrap;connectable=0;fillColor=none;top=0;left=0;bottom=0;right=0;overflow=hidden;" vertex="1" parent="c2sXDAtgwe_dRYKI0X34-29">
          <mxGeometry width="40" height="30" as="geometry" />
        </mxCell>
        <mxCell id="c2sXDAtgwe_dRYKI0X34-31" value="email NOT NULL" style="shape=partialRectangle;html=1;whiteSpace=wrap;connectable=0;fillColor=none;top=0;left=0;bottom=0;right=0;align=left;spacingLeft=6;overflow=hidden;" vertex="1" parent="c2sXDAtgwe_dRYKI0X34-29">
          <mxGeometry x="40" width="140" height="30" as="geometry" />
        </mxCell>
        <mxCell id="c2sXDAtgwe_dRYKI0X34-32" value="&lt;font style=&quot;font-size: 13px&quot;&gt;TestsUser&lt;/font&gt;" style="shape=table;startSize=30;container=1;collapsible=0;childLayout=tableLayout;fixedRows=1;rowLines=0;fontStyle=1;align=center;pointerEvents=1;fontSize=10;html=1;fillColor=none;strokeWidth=1;" vertex="1" parent="1">
          <mxGeometry x="330" y="320" width="180" height="110" as="geometry" />
        </mxCell>
        <mxCell id="c2sXDAtgwe_dRYKI0X34-36" value="" style="shape=partialRectangle;html=1;whiteSpace=wrap;collapsible=0;dropTarget=0;pointerEvents=0;fillColor=none;top=0;left=0;bottom=0;right=0;points=[[0,0.5],[1,0.5]];portConstraint=eastwest;" vertex="1" parent="c2sXDAtgwe_dRYKI0X34-32">
          <mxGeometry y="30" width="180" height="30" as="geometry" />
        </mxCell>
        <mxCell id="c2sXDAtgwe_dRYKI0X34-37" value="" style="shape=partialRectangle;html=1;whiteSpace=wrap;connectable=0;fillColor=none;top=0;left=0;bottom=0;right=0;overflow=hidden;" vertex="1" parent="c2sXDAtgwe_dRYKI0X34-36">
          <mxGeometry width="40" height="30" as="geometry" />
        </mxCell>
        <mxCell id="c2sXDAtgwe_dRYKI0X34-38" value="test_id - &lt;b&gt;FK&lt;/b&gt;" style="shape=partialRectangle;html=1;whiteSpace=wrap;connectable=0;fillColor=none;top=0;left=0;bottom=0;right=0;align=left;spacingLeft=6;overflow=hidden;" vertex="1" parent="c2sXDAtgwe_dRYKI0X34-36">
          <mxGeometry x="40" width="140" height="30" as="geometry" />
        </mxCell>
        <mxCell id="c2sXDAtgwe_dRYKI0X34-39" value="" style="shape=partialRectangle;html=1;whiteSpace=wrap;collapsible=0;dropTarget=0;pointerEvents=0;fillColor=none;top=0;left=0;bottom=0;right=0;points=[[0,0.5],[1,0.5]];portConstraint=eastwest;" vertex="1" parent="c2sXDAtgwe_dRYKI0X34-32">
          <mxGeometry y="60" width="180" height="30" as="geometry" />
        </mxCell>
        <mxCell id="c2sXDAtgwe_dRYKI0X34-40" value="" style="shape=partialRectangle;html=1;whiteSpace=wrap;connectable=0;fillColor=none;top=0;left=0;bottom=0;right=0;overflow=hidden;" vertex="1" parent="c2sXDAtgwe_dRYKI0X34-39">
          <mxGeometry width="40" height="30" as="geometry" />
        </mxCell>
        <mxCell id="c2sXDAtgwe_dRYKI0X34-41" value="user_id - &lt;b&gt;FK&lt;/b&gt;" style="shape=partialRectangle;html=1;whiteSpace=wrap;connectable=0;fillColor=none;top=0;left=0;bottom=0;right=0;align=left;spacingLeft=6;overflow=hidden;" vertex="1" parent="c2sXDAtgwe_dRYKI0X34-39">
          <mxGeometry x="40" width="140" height="30" as="geometry" />
        </mxCell>
        <mxCell id="c2sXDAtgwe_dRYKI0X34-33" value="" style="shape=partialRectangle;html=1;whiteSpace=wrap;collapsible=0;dropTarget=0;pointerEvents=0;fillColor=none;top=0;left=0;bottom=1;right=0;points=[[0,0.5],[1,0.5]];portConstraint=eastwest;" vertex="1" parent="c2sXDAtgwe_dRYKI0X34-32">
          <mxGeometry y="90" width="180" height="20" as="geometry" />
        </mxCell>
        <mxCell id="c2sXDAtgwe_dRYKI0X34-34" value="" style="shape=partialRectangle;html=1;whiteSpace=wrap;connectable=0;fillColor=none;top=0;left=0;bottom=0;right=0;overflow=hidden;" vertex="1" parent="c2sXDAtgwe_dRYKI0X34-33">
          <mxGeometry width="40" height="20" as="geometry" />
        </mxCell>
        <mxCell id="c2sXDAtgwe_dRYKI0X34-35" value="" style="shape=partialRectangle;html=1;whiteSpace=wrap;connectable=0;fillColor=none;top=0;left=0;bottom=0;right=0;align=left;spacingLeft=6;overflow=hidden;" vertex="1" parent="c2sXDAtgwe_dRYKI0X34-33">
          <mxGeometry x="40" width="140" height="20" as="geometry" />
        </mxCell>
        <mxCell id="c2sXDAtgwe_dRYKI0X34-42" value="&lt;font style=&quot;font-size: 13px&quot;&gt;Question&lt;/font&gt;" style="shape=table;startSize=30;container=1;collapsible=0;childLayout=tableLayout;fixedRows=1;rowLines=0;fontStyle=1;align=center;pointerEvents=1;fontSize=10;html=1;fillColor=none;strokeWidth=1;" vertex="1" parent="1">
          <mxGeometry x="610" y="60" width="180" height="130" as="geometry" />
        </mxCell>
        <mxCell id="c2sXDAtgwe_dRYKI0X34-43" value="" style="shape=partialRectangle;html=1;whiteSpace=wrap;collapsible=0;dropTarget=0;pointerEvents=0;fillColor=none;top=0;left=0;bottom=1;right=0;points=[[0,0.5],[1,0.5]];portConstraint=eastwest;" vertex="1" parent="c2sXDAtgwe_dRYKI0X34-42">
          <mxGeometry y="30" width="180" height="30" as="geometry" />
        </mxCell>
        <mxCell id="c2sXDAtgwe_dRYKI0X34-44" value="" style="shape=partialRectangle;html=1;whiteSpace=wrap;connectable=0;fillColor=none;top=0;left=0;bottom=0;right=0;overflow=hidden;" vertex="1" parent="c2sXDAtgwe_dRYKI0X34-43">
          <mxGeometry width="40" height="30" as="geometry" />
        </mxCell>
        <mxCell id="c2sXDAtgwe_dRYKI0X34-45" value="&lt;font style=&quot;font-size: 13px&quot;&gt;&lt;b&gt;id&lt;/b&gt;&lt;/font&gt;" style="shape=partialRectangle;html=1;whiteSpace=wrap;connectable=0;fillColor=none;top=0;left=0;bottom=0;right=0;align=left;spacingLeft=6;overflow=hidden;" vertex="1" parent="c2sXDAtgwe_dRYKI0X34-43">
          <mxGeometry x="40" width="140" height="30" as="geometry" />
        </mxCell>
        <mxCell id="c2sXDAtgwe_dRYKI0X34-46" value="" style="shape=partialRectangle;html=1;whiteSpace=wrap;collapsible=0;dropTarget=0;pointerEvents=0;fillColor=none;top=0;left=0;bottom=0;right=0;points=[[0,0.5],[1,0.5]];portConstraint=eastwest;" vertex="1" parent="c2sXDAtgwe_dRYKI0X34-42">
          <mxGeometry y="60" width="180" height="30" as="geometry" />
        </mxCell>
        <mxCell id="c2sXDAtgwe_dRYKI0X34-47" value="&lt;b&gt;FK&lt;/b&gt;" style="shape=partialRectangle;html=1;whiteSpace=wrap;connectable=0;fillColor=none;top=0;left=0;bottom=0;right=0;overflow=hidden;" vertex="1" parent="c2sXDAtgwe_dRYKI0X34-46">
          <mxGeometry width="40" height="30" as="geometry" />
        </mxCell>
        <mxCell id="c2sXDAtgwe_dRYKI0X34-48" value="test_id" style="shape=partialRectangle;html=1;whiteSpace=wrap;connectable=0;fillColor=none;top=0;left=0;bottom=0;right=0;align=left;spacingLeft=6;overflow=hidden;" vertex="1" parent="c2sXDAtgwe_dRYKI0X34-46">
          <mxGeometry x="40" width="140" height="30" as="geometry" />
        </mxCell>
        <mxCell id="c2sXDAtgwe_dRYKI0X34-49" value="" style="shape=partialRectangle;html=1;whiteSpace=wrap;collapsible=0;dropTarget=0;pointerEvents=0;fillColor=none;top=0;left=0;bottom=0;right=0;points=[[0,0.5],[1,0.5]];portConstraint=eastwest;" vertex="1" parent="c2sXDAtgwe_dRYKI0X34-42">
          <mxGeometry y="90" width="180" height="30" as="geometry" />
        </mxCell>
        <mxCell id="c2sXDAtgwe_dRYKI0X34-50" value="" style="shape=partialRectangle;html=1;whiteSpace=wrap;connectable=0;fillColor=none;top=0;left=0;bottom=0;right=0;overflow=hidden;" vertex="1" parent="c2sXDAtgwe_dRYKI0X34-49">
          <mxGeometry width="40" height="30" as="geometry" />
        </mxCell>
        <mxCell id="c2sXDAtgwe_dRYKI0X34-51" value="body NOT NULL" style="shape=partialRectangle;html=1;whiteSpace=wrap;connectable=0;fillColor=none;top=0;left=0;bottom=0;right=0;align=left;spacingLeft=6;overflow=hidden;" vertex="1" parent="c2sXDAtgwe_dRYKI0X34-49">
          <mxGeometry x="40" width="140" height="30" as="geometry" />
        </mxCell>
        <mxCell id="c2sXDAtgwe_dRYKI0X34-52" value="&lt;font style=&quot;font-size: 13px&quot;&gt;Answer&lt;/font&gt;" style="shape=table;startSize=30;container=1;collapsible=0;childLayout=tableLayout;fixedRows=1;rowLines=0;fontStyle=1;align=center;pointerEvents=1;fontSize=10;html=1;fillColor=none;strokeWidth=1;" vertex="1" parent="1">
          <mxGeometry x="610" y="230" width="180" height="160" as="geometry" />
        </mxCell>
        <mxCell id="c2sXDAtgwe_dRYKI0X34-53" value="" style="shape=partialRectangle;html=1;whiteSpace=wrap;collapsible=0;dropTarget=0;pointerEvents=0;fillColor=none;top=0;left=0;bottom=1;right=0;points=[[0,0.5],[1,0.5]];portConstraint=eastwest;" vertex="1" parent="c2sXDAtgwe_dRYKI0X34-52">
          <mxGeometry y="30" width="180" height="30" as="geometry" />
        </mxCell>
        <mxCell id="c2sXDAtgwe_dRYKI0X34-54" value="" style="shape=partialRectangle;html=1;whiteSpace=wrap;connectable=0;fillColor=none;top=0;left=0;bottom=0;right=0;overflow=hidden;" vertex="1" parent="c2sXDAtgwe_dRYKI0X34-53">
          <mxGeometry width="40" height="30" as="geometry" />
        </mxCell>
        <mxCell id="c2sXDAtgwe_dRYKI0X34-55" value="&lt;font style=&quot;font-size: 13px&quot;&gt;&lt;b&gt;id&lt;/b&gt;&lt;/font&gt;" style="shape=partialRectangle;html=1;whiteSpace=wrap;connectable=0;fillColor=none;top=0;left=0;bottom=0;right=0;align=left;spacingLeft=6;overflow=hidden;" vertex="1" parent="c2sXDAtgwe_dRYKI0X34-53">
          <mxGeometry x="40" width="140" height="30" as="geometry" />
        </mxCell>
        <mxCell id="c2sXDAtgwe_dRYKI0X34-56" value="" style="shape=partialRectangle;html=1;whiteSpace=wrap;collapsible=0;dropTarget=0;pointerEvents=0;fillColor=none;top=0;left=0;bottom=0;right=0;points=[[0,0.5],[1,0.5]];portConstraint=eastwest;" vertex="1" parent="c2sXDAtgwe_dRYKI0X34-52">
          <mxGeometry y="60" width="180" height="30" as="geometry" />
        </mxCell>
        <mxCell id="c2sXDAtgwe_dRYKI0X34-57" value="&lt;b&gt;FK&lt;/b&gt;" style="shape=partialRectangle;html=1;whiteSpace=wrap;connectable=0;fillColor=none;top=0;left=0;bottom=0;right=0;overflow=hidden;" vertex="1" parent="c2sXDAtgwe_dRYKI0X34-56">
          <mxGeometry width="40" height="30" as="geometry" />
        </mxCell>
        <mxCell id="c2sXDAtgwe_dRYKI0X34-58" value="question_id" style="shape=partialRectangle;html=1;whiteSpace=wrap;connectable=0;fillColor=none;top=0;left=0;bottom=0;right=0;align=left;spacingLeft=6;overflow=hidden;" vertex="1" parent="c2sXDAtgwe_dRYKI0X34-56">
          <mxGeometry x="40" width="140" height="30" as="geometry" />
        </mxCell>
        <mxCell id="c2sXDAtgwe_dRYKI0X34-59" value="" style="shape=partialRectangle;html=1;whiteSpace=wrap;collapsible=0;dropTarget=0;pointerEvents=0;fillColor=none;top=0;left=0;bottom=0;right=0;points=[[0,0.5],[1,0.5]];portConstraint=eastwest;" vertex="1" parent="c2sXDAtgwe_dRYKI0X34-52">
          <mxGeometry y="90" width="180" height="30" as="geometry" />
        </mxCell>
        <mxCell id="c2sXDAtgwe_dRYKI0X34-60" value="" style="shape=partialRectangle;html=1;whiteSpace=wrap;connectable=0;fillColor=none;top=0;left=0;bottom=0;right=0;overflow=hidden;" vertex="1" parent="c2sXDAtgwe_dRYKI0X34-59">
          <mxGeometry width="40" height="30" as="geometry" />
        </mxCell>
        <mxCell id="c2sXDAtgwe_dRYKI0X34-61" value="title" style="shape=partialRectangle;html=1;whiteSpace=wrap;connectable=0;fillColor=none;top=0;left=0;bottom=0;right=0;align=left;spacingLeft=6;overflow=hidden;" vertex="1" parent="c2sXDAtgwe_dRYKI0X34-59">
          <mxGeometry x="40" width="140" height="30" as="geometry" />
        </mxCell>
        <mxCell id="c2sXDAtgwe_dRYKI0X34-62" value="" style="points=[[0,0.5,0],[0.24,0,0],[0.5,0.28,0],[0.995,0.475,0],[0.5,0.72,0],[0.24,1,0]];verticalLabelPosition=bottom;html=1;verticalAlign=top;aspect=fixed;align=center;pointerEvents=1;shape=mxgraph.cisco19.key;fillColor=#005073;strokeColor=none;fontSize=13;fontColor=#000000;" vertex="1" parent="1">
          <mxGeometry x="70" y="60" width="22.22" height="10" as="geometry" />
        </mxCell>
        <mxCell id="c2sXDAtgwe_dRYKI0X34-65" value="FK" style="shape=partialRectangle;html=1;whiteSpace=wrap;connectable=0;fillColor=none;top=0;left=0;bottom=0;right=0;overflow=hidden;fontStyle=1" vertex="1" parent="1">
          <mxGeometry x="330" y="120" width="40" height="30" as="geometry" />
        </mxCell>
        <mxCell id="c2sXDAtgwe_dRYKI0X34-67" value="" style="points=[[0,0.5,0],[0.24,0,0],[0.5,0.28,0],[0.995,0.475,0],[0.5,0.72,0],[0.24,1,0]];verticalLabelPosition=bottom;html=1;verticalAlign=top;aspect=fixed;align=center;pointerEvents=1;shape=mxgraph.cisco19.key;fillColor=#005073;strokeColor=none;fontSize=13;fontColor=#000000;" vertex="1" parent="1">
          <mxGeometry x="341.78" y="100" width="22.22" height="10" as="geometry" />
        </mxCell>
        <mxCell id="c2sXDAtgwe_dRYKI0X34-68" value="" style="points=[[0,0.5,0],[0.24,0,0],[0.5,0.28,0],[0.995,0.475,0],[0.5,0.72,0],[0.24,1,0]];verticalLabelPosition=bottom;html=1;verticalAlign=top;aspect=fixed;align=center;pointerEvents=1;shape=mxgraph.cisco19.key;fillColor=#005073;strokeColor=none;fontSize=13;fontColor=#000000;" vertex="1" parent="1">
          <mxGeometry x="70" y="230" width="22.22" height="10" as="geometry" />
        </mxCell>
        <mxCell id="c2sXDAtgwe_dRYKI0X34-71" value="FK" style="shape=partialRectangle;html=1;whiteSpace=wrap;connectable=0;fillColor=none;top=0;left=0;bottom=0;right=0;overflow=hidden;fontStyle=1" vertex="1" parent="1">
          <mxGeometry x="330" y="150" width="40" height="30" as="geometry" />
        </mxCell>
        <mxCell id="c2sXDAtgwe_dRYKI0X34-72" value="title NOT NULL" style="shape=partialRectangle;html=1;whiteSpace=wrap;connectable=0;fillColor=none;top=0;left=0;bottom=0;right=0;align=left;spacingLeft=6;overflow=hidden;" vertex="1" parent="1">
          <mxGeometry x="370" y="180" width="140" height="30" as="geometry" />
        </mxCell>
        <mxCell id="c2sXDAtgwe_dRYKI0X34-73" value="level NOT NULL, def: 0" style="shape=partialRectangle;html=1;whiteSpace=wrap;connectable=0;fillColor=none;top=0;left=0;bottom=0;right=0;align=left;spacingLeft=6;overflow=hidden;" vertex="1" parent="1">
          <mxGeometry x="370" y="210" width="140" height="30" as="geometry" />
        </mxCell>
        <mxCell id="c2sXDAtgwe_dRYKI0X34-74" value="" style="points=[[0,0.5,0],[0.24,0,0],[0.5,0.28,0],[0.995,0.475,0],[0.5,0.72,0],[0.24,1,0]];verticalLabelPosition=bottom;html=1;verticalAlign=top;aspect=fixed;align=center;pointerEvents=1;shape=mxgraph.cisco19.key;fillColor=#005073;strokeColor=none;fontSize=13;fontColor=#000000;" vertex="1" parent="1">
          <mxGeometry x="630" y="100" width="22.22" height="10" as="geometry" />
        </mxCell>
        <mxCell id="c2sXDAtgwe_dRYKI0X34-75" value="" style="points=[[0,0.5,0],[0.24,0,0],[0.5,0.28,0],[0.995,0.475,0],[0.5,0.72,0],[0.24,1,0]];verticalLabelPosition=bottom;html=1;verticalAlign=top;aspect=fixed;align=center;pointerEvents=1;shape=mxgraph.cisco19.key;fillColor=#005073;strokeColor=none;fontSize=13;fontColor=#000000;" vertex="1" parent="1">
          <mxGeometry x="630" y="270" width="22.22" height="10" as="geometry" />
        </mxCell>
        <mxCell id="c2sXDAtgwe_dRYKI0X34-76" value="correct def: false" style="shape=partialRectangle;html=1;whiteSpace=wrap;connectable=0;fillColor=none;top=0;left=0;bottom=0;right=0;align=left;spacingLeft=6;overflow=hidden;" vertex="1" parent="1">
          <mxGeometry x="660" y="350" width="140" height="30" as="geometry" />
        </mxCell>
        <mxCell id="c2sXDAtgwe_dRYKI0X34-77" value="" style="points=[[0,0.5,0],[0.24,0,0],[0.5,0.28,0],[0.995,0.475,0],[0.5,0.72,0],[0.24,1,0]];verticalLabelPosition=bottom;html=1;verticalAlign=top;aspect=fixed;align=center;pointerEvents=1;shape=mxgraph.cisco19.key;fillColor=#005073;strokeColor=none;fontSize=13;fontColor=#000000;" vertex="1" parent="1">
          <mxGeometry x="338.89" y="360" width="22.22" height="10" as="geometry" />
        </mxCell>
        <mxCell id="c2sXDAtgwe_dRYKI0X34-78" value="" style="points=[[0,0.5,0],[0.24,0,0],[0.5,0.28,0],[0.995,0.475,0],[0.5,0.72,0],[0.24,1,0]];verticalLabelPosition=bottom;html=1;verticalAlign=top;aspect=fixed;align=center;pointerEvents=1;shape=mxgraph.cisco19.key;fillColor=#005073;strokeColor=none;fontSize=13;fontColor=#000000;" vertex="1" parent="1">
          <mxGeometry x="338.89" y="390" width="22.22" height="10" as="geometry" />
        </mxCell>
        <mxCell id="c2sXDAtgwe_dRYKI0X34-80" style="edgeStyle=orthogonalEdgeStyle;rounded=0;orthogonalLoop=1;jettySize=auto;html=1;exitX=1;exitY=0.5;exitDx=0;exitDy=0;fontSize=13;fontColor=#000000;startArrow=ERmandOne;startFill=0;endArrow=ERzeroToMany;endFill=1;" edge="1" parent="1" source="c2sXDAtgwe_dRYKI0X34-13" target="c2sXDAtgwe_dRYKI0X34-5">
          <mxGeometry relative="1" as="geometry" />
        </mxCell>
        <mxCell id="c2sXDAtgwe_dRYKI0X34-81" style="edgeStyle=orthogonalEdgeStyle;rounded=0;orthogonalLoop=1;jettySize=auto;html=1;exitX=1;exitY=0.5;exitDx=0;exitDy=0;fontSize=13;fontColor=#000000;startArrow=ERmandOne;startFill=0;endArrow=ERzeroToMany;endFill=1;" edge="1" parent="1" source="c2sXDAtgwe_dRYKI0X34-23" target="c2sXDAtgwe_dRYKI0X34-8">
          <mxGeometry relative="1" as="geometry" />
        </mxCell>
        <mxCell id="c2sXDAtgwe_dRYKI0X34-82" style="edgeStyle=orthogonalEdgeStyle;rounded=0;orthogonalLoop=1;jettySize=auto;html=1;exitX=1;exitY=0.5;exitDx=0;exitDy=0;fontSize=13;fontColor=#000000;startArrow=ERmandOne;startFill=0;endArrow=ERzeroToMany;endFill=1;" edge="1" parent="1" source="c2sXDAtgwe_dRYKI0X34-2" target="c2sXDAtgwe_dRYKI0X34-46">
          <mxGeometry relative="1" as="geometry" />
        </mxCell>
        <mxCell id="c2sXDAtgwe_dRYKI0X34-83" style="edgeStyle=orthogonalEdgeStyle;rounded=0;orthogonalLoop=1;jettySize=auto;html=1;exitX=1;exitY=0.5;exitDx=0;exitDy=0;fontSize=13;fontColor=#000000;startArrow=ERmandOne;startFill=0;endArrow=ERzeroToMany;endFill=1;" edge="1" parent="1" source="c2sXDAtgwe_dRYKI0X34-43" target="c2sXDAtgwe_dRYKI0X34-56">
          <mxGeometry relative="1" as="geometry" />
        </mxCell>
      </root>
    </mxGraphModel>
  </diagram>
</mxfile>
